<?xml version="1.0" encoding="UTF-8" standalone="no" ?>
<!DOCTYPE svg PUBLIC "-//W3C//DTD SVG 1.1//EN" "http://www.w3.org/Graphics/SVG/1.1/DTD/svg11.dtd">
<svg xmlns="http://www.w3.org/2000/svg" xmlns:xlink="http://www.w3.org/1999/xlink" version="1.1" width="80" height="50" viewBox="0 0 80 50" xml:space="preserve">
<desc>Created with Fabric.js 5.3.0</desc>
<defs>
</defs>
<g transform="matrix(1 0 0 1 46.5555542091 124.0775769172)" id="o4KNrLUSwrP_xk510F2Y3"  >
<path style="stroke: rgb(219,219,219); stroke-width: 2; stroke-dasharray: none; stroke-linecap: butt; stroke-dashoffset: 0; stroke-linejoin: miter; stroke-miterlimit: 4; fill: none; fill-rule: nonzero; opacity: 1;"  transform=" translate(-38.6111092394, -22.5000017582)" d="M 22.5 0 C 22.50424 0 22.50847 0 22.51271 0 L 54.70957 0 C 54.713789999999996 0 54.717999999999996 0 54.72222 0 C 67.14222 0 77.22222 10.08 77.22222 22.5 C 77.22222 34.92 67.14222 45 54.72221999999999 45 C 54.72221999999999 45 54.72221999999999 45 54.72221999999999 45 L 54.72221999999999 45 L 22.499999999999993 45 L 22.499999999999993 45 C 10.079999999999993 45 -7.105427357601002e-15 34.92 -7.105427357601002e-15 22.5 C -7.105427357601002e-15 10.08 10.079999999999993 0 22.499999999999993 0 z" stroke-linecap="round" />
</g>
<g transform="matrix(1 0 0 1 153.6978860737 -22.102154946)" id="ezpKYfTN8-HYH9oG5flIT"  >
<path style="stroke: rgb(33,15,136); stroke-width: 0; stroke-dasharray: none; stroke-linecap: butt; stroke-dashoffset: 0; stroke-linejoin: miter; stroke-miterlimit: 4; fill: rgb(0,0,0); fill-rule: nonzero; opacity: 1;"  transform=" translate(-20, -20)" d="M 20 0 C 31.04 0 40 8.96 40 20 C 40 31.04 31.04 40 20 40 C 8.96 40 0 31.04 0 20 C 0 8.96 8.96 0 20 0 z M 16.53864 3.10443 C 7.409300000000002 5.2120999999999995 1.710560000000001 14.332 3.8182300000000016 23.46133 C 5.925900000000002 32.59067 15.045800000000002 38.289410000000004 24.175130000000003 36.18174 C 27.233220000000003 35.475719999999995 29.906380000000002 33.982879999999994 32.030120000000004 31.96643 C 32.019470000000005 31.96892 32.008810000000004 31.97139 31.998140000000003 31.97385 C 24.12751 33.790929999999996 16.265010000000004 28.87789 14.447930000000003 21.00726 C 12.630850000000002 13.136629999999998 17.543890000000005 5.2741299999999995 25.414520000000003 3.457049999999999 C 25.42517 3.4545899999999987 25.435830000000003 3.4521399999999987 25.446480000000005 3.4497099999999987 C 22.653740000000006 2.5683299999999987 19.596720000000005 2.398409999999999 16.538650000000004 3.104429999999999 z" stroke-linecap="round" />
</g>
<g transform="matrix(1 0 0 1 115.510649507 -66.2424963734)" id="00zulE3XqwJjgmwNqEDwt"  >
<path style="stroke: rgb(33,15,136); stroke-width: 0; stroke-dasharray: none; stroke-linecap: butt; stroke-dashoffset: 0; stroke-linejoin: miter; stroke-miterlimit: 4; fill: rgb(0,0,0); fill-rule: nonzero; opacity: 1;"  transform=" translate(-20, -20)" d="M 20 0 C 31.04 0 40 8.96 40 20 C 40 31.04 31.04 40 20 40 C 8.96 40 0 31.04 0 20 C 0 8.96 8.96 0 20 0 z M 16.53864 3.10443 C 7.409300000000002 5.2120999999999995 1.710560000000001 14.332 3.8182300000000016 23.46133 C 5.925900000000002 32.59067 15.045800000000002 38.289410000000004 24.175130000000003 36.18174 C 27.233220000000003 35.475719999999995 29.906380000000002 33.982879999999994 32.030120000000004 31.96643 C 32.019470000000005 31.96892 32.008810000000004 31.97139 31.998140000000003 31.97385 C 24.12751 33.790929999999996 16.265010000000004 28.87789 14.447930000000003 21.00726 C 12.630850000000002 13.136629999999998 17.543890000000005 5.2741299999999995 25.414520000000003 3.457049999999999 C 25.42517 3.4545899999999987 25.435830000000003 3.4521399999999987 25.446480000000005 3.4497099999999987 C 22.653740000000006 2.5683299999999987 19.596720000000005 2.398409999999999 16.538650000000004 3.104429999999999 z" stroke-linecap="round" />
</g>
<g transform="matrix(1 0 0 1 40 25)" id="NfPC11NSvW7qWmzDP_U5i"  >
<path style="stroke: rgb(0,0,0); stroke-width: 2; stroke-dasharray: none; stroke-linecap: butt; stroke-dashoffset: 0; stroke-linejoin: miter; stroke-miterlimit: 4; fill: rgb(0,0,0); fill-rule: nonzero; opacity: 1;"  transform=" translate(-38.61111, -22.5)" d="M 22.5 0 C 22.50424 0 22.50847 0 22.51271 0 C 22.51693 0 54.717999999999996 0 54.72222 0 C 67.14222 0 77.22222 10.08 77.22222 22.5 C 77.22222 34.92 67.14222 45 54.72221999999999 45 L 22.499999999999993 45 C 10.079999999999993 45 -7.105427357601002e-15 34.92 -7.105427357601002e-15 22.5 C -7.105427357601002e-15 10.08 10.079999999999993 0 22.499999999999993 0 z M 3.48375 22.5 C 3.48375 33.54 12.443750000000001 42.5 23.48375 42.5 C 34.52375 42.5 43.48375 33.54 43.48375 22.5 C 43.48375 11.46 34.52375 2.5 23.48375 2.5 C 12.443750000000001 2.5 3.4837500000000006 11.46 3.4837500000000006 22.5 z" stroke-linecap="round" />
</g>
<g transform="matrix(0.5851554178 0 0 0.5851554178 129.3205702729 23.3368096057)" id="UNRUcWFmmSJSsfR2exM2a"  >
<path style="stroke: rgb(0,0,0); stroke-width: 0; stroke-dasharray: none; stroke-linecap: butt; stroke-dashoffset: 0; stroke-linejoin: miter; stroke-miterlimit: 4; fill: rgb(255,255,255); fill-rule: nonzero; opacity: 1;"  transform=" translate(-19.1590876875, -23.80952)" d="M 23.80952 0 C 29.2686 0 34.30047 1.8403 38.31818 4.93395 C 36.96013 4.631410000000001 35.5484 4.47182 34.09962 4.47182 C 23.425200000000004 4.47182 14.76191 13.13512 14.76191 23.809530000000002 C 14.76191 34.48395 23.42521 43.147240000000004 34.09962 43.147240000000004 C 35.548390000000005 43.147240000000004 36.96011 42.98765 38.31816 42.68511 C 34.30045 45.77875 29.26859 47.61904 23.80952 47.61904 C 10.666659999999998 47.61904 0 36.95237 0 23.80952 C 0 10.666659999999998 10.66667 0 23.80952 0 z" stroke-linecap="round" />
</g>
<g transform="matrix(1 0 0 1 62.8926859778 124.0775769172)" id="K_pq5Nqn9qmqo2pZDZKSU"  >
<path style="stroke: rgb(0,0,0); stroke-width: 0; stroke-dasharray: none; stroke-linecap: butt; stroke-dashoffset: 0; stroke-linejoin: miter; stroke-miterlimit: 4; fill: rgb(219,219,219); fill-rule: nonzero; opacity: 1;"  transform=" translate(-20, -20)" d="M 20 0 C 31.04 0 40 8.96 40 20 C 40 31.04 31.04 40 20 40 C 8.96 40 0 31.04 0 20 C 0 8.96 8.96 0 20 0 z M 15.07575 6.95668 C 7.895949999999999 9.71275 4.30566 17.77664 7.061729999999999 24.956450000000004 C 9.817799999999998 32.136250000000004 17.88169 35.72654 25.061500000000002 32.970470000000006 C 28.043740000000003 31.825700000000005 30.40668 29.765170000000005 31.95277 27.232640000000007 C 31.274330000000003 27.682710000000007 30.53659 28.065920000000006 29.74514 28.369730000000008 C 23.91382 30.60816000000001 17.364440000000002 27.692190000000007 15.126009999999999 21.860870000000006 C 12.88758 16.029550000000008 15.80355 9.480170000000006 21.63487 7.241740000000005 C 22.42632 6.937930000000005 23.230999999999998 6.729080000000005 24.03633 6.609560000000005 C 21.19276 5.762040000000005 18.05798 5.811900000000005 15.07575 6.956670000000005 z" stroke-linecap="round" />
</g>
<g transform="matrix(1 0 0 1 24.8726456244 25)" id="iT69neyLc-JUsFiFwaJ6s"  >
<path style="stroke: rgb(0,0,0); stroke-width: 0; stroke-dasharray: none; stroke-linecap: butt; stroke-dashoffset: 0; stroke-linejoin: miter; stroke-miterlimit: 4; fill: rgb(0,0,0); fill-rule: nonzero; opacity: 1;"  transform=" translate(-14.21459, -14.21459)" d="M 14.21459 7.88749 C 17.70715 7.88749 20.5417 10.72203 20.5417 14.2146 C 20.5417 17.707160000000002 17.70716 20.541710000000002 14.214589999999998 20.541710000000002 C 10.722029999999997 20.541710000000002 7.887479999999997 17.70717 7.887479999999997 14.2146 C 7.887479999999997 10.72204 10.722019999999997 7.887490000000001 14.214589999999998 7.887490000000001 z M 13.15277 0.45049 C 13.15277 0.20169 13.35446 0 13.60326 0 L 14.82591 0 C 15.07471 0 15.2764 0.20169 15.2764 0.45049 L 15.2764 4.52327 C 15.2764 4.77207 15.074710000000001 4.97376 14.82591 4.97376 L 13.60326 4.97376 C 13.354460000000001 4.97376 13.15277 4.77207 13.15277 4.52327 z M 13.15277 23.90591 C 13.15277 23.65711 13.35446 23.45542 13.60326 23.45542 L 14.82591 23.45542 C 15.07471 23.45542 15.2764 23.65711 15.2764 23.90591 L 15.2764 27.97869 C 15.2764 28.22749 15.074710000000001 28.42918 14.82591 28.42918 L 13.60326 28.42918 C 13.354460000000001 28.42918 13.15277 28.22749 13.15277 27.97869 z M 20.17707 1.76363 C 20.301470000000002 1.54816 20.576990000000002 1.47434 20.792460000000002 1.59874 L 21.85131 2.21007 C 22.06678 2.33447 22.140600000000003 2.60999 22.0162 2.82546 L 19.97981 6.352600000000001 C 19.85541 6.5680700000000005 19.57989 6.641890000000001 19.36442 6.5174900000000004 L 18.30557 5.90617 C 18.0901 5.781770000000001 18.01628 5.5062500000000005 18.14068 5.290780000000001 z M 8.44937 22.07661 C 8.57377 21.86114 8.84929 21.787319999999998 9.06476 21.91172 L 10.12361 22.523049999999998 C 10.33908 22.64745 10.412899999999999 22.92297 10.288499999999999 23.13844 L 8.252109999999998 26.66558 C 8.127709999999999 26.88105 7.8521899999999984 26.95487 7.636719999999999 26.83047 L 6.577869999999999 26.21915 C 6.362399999999999 26.094749999999998 6.288579999999999 25.819229999999997 6.412979999999999 25.603759999999998 z M 25.60374 6.41298 C 25.819209999999998 6.2885800000000005 26.09473 6.3624 26.21913 6.57787 L 26.83046 7.63672 C 26.95486 7.85219 26.88104 8.12771 26.66557 8.25211 L 23.13843 10.288499999999999 C 22.92296 10.412899999999999 22.64744 10.33908 22.523039999999998 10.12361 L 21.91171 9.06476 C 21.787309999999998 8.84929 21.86113 8.57377 22.0766 8.44937 z M 5.29075 18.14069 C 5.50622 18.016289999999998 5.78174 18.09011 5.90614 18.30558 L 6.517469999999999 19.36443 C 6.641869999999999 19.5799 6.5680499999999995 19.85542 6.35258 19.97982 L 2.8254399999999995 22.01621 C 2.6099699999999997 22.140610000000002 2.3344499999999995 22.06679 2.2100499999999994 21.85132 L 1.5987199999999993 20.79247 C 1.4743199999999992 20.577 1.5481399999999992 20.30148 1.7636099999999992 20.17708 z M 27.97869 13.15277 C 28.22749 13.15277 28.42918 13.35446 28.42918 13.60326 L 28.42918 14.82591 C 28.42918 15.07471 28.22749 15.2764 27.97869 15.2764 L 23.90591 15.2764 C 23.65711 15.2764 23.45542 15.074710000000001 23.45542 14.82591 L 23.45542 13.60326 C 23.45542 13.354460000000001 23.65711 13.15277 23.90591 13.15277 z M 4.52327 13.15277 C 4.77207 13.15277 4.97376 13.35446 4.97376 13.60326 L 4.97376 14.82591 C 4.97376 15.07471 4.77207 15.2764 4.52327 15.2764 L 0.4504900000000003 15.2764 C 0.20169000000000029 15.2764 2.7755575615628914e-16 15.074710000000001 2.7755575615628914e-16 14.82591 L 2.7755575615628914e-16 13.60326 C 2.7755575615628914e-16 13.354460000000001 0.20169000000000029 13.15277 0.4504900000000003 13.15277 z M 26.66555 20.17708 C 26.88102 20.30148 26.95484 20.577 26.83044 20.79247 L 26.21911 21.85132 C 26.09471 22.06679 25.81919 22.140610000000002 25.60372 22.01621 L 22.07658 19.97982 C 21.86111 19.85542 21.78729 19.5799 21.91169 19.36443 L 22.52301 18.30558 C 22.64741 18.09011 22.92293 18.016289999999998 23.1384 18.14069 z M 6.35257 8.44937 C 6.56804 8.57377 6.64186 8.84929 6.51746 9.06476 L 5.90613 10.12361 C 5.7817300000000005 10.33908 5.50621 10.412899999999999 5.29074 10.288499999999999 L 1.7636000000000003 8.252109999999998 C 1.5481300000000002 8.127709999999999 1.4743100000000002 7.8521899999999984 1.5987100000000003 7.636719999999999 L 2.21003 6.577869999999999 C 2.3344300000000002 6.362399999999999 2.60995 6.288579999999999 2.8254200000000003 6.412979999999999 z M 22.01619 25.60374 C 22.140590000000003 25.819209999999998 22.06677 26.09473 21.851300000000002 26.21913 L 20.792450000000002 26.83046 C 20.576980000000002 26.95486 20.301460000000002 26.88104 20.17706 26.66557 L 18.14067 23.13843 C 18.01627 22.92296 18.09009 22.64744 18.30556 22.523039999999998 L 19.36441 21.91171 C 19.57988 21.787309999999998 19.8554 21.86113 19.9798 22.0766 z M 10.28848 5.29076 C 10.41288 5.5062299999999995 10.33906 5.78175 10.12359 5.906149999999999 L 9.06474 6.517479999999999 C 8.84927 6.641879999999999 8.57375 6.568059999999999 8.44935 6.352589999999999 L 6.412960000000001 2.825449999999999 C 6.288560000000001 2.6099799999999993 6.362380000000001 2.334459999999999 6.577850000000001 2.210059999999999 L 7.636700000000001 1.5987299999999989 C 7.852170000000001 1.4743299999999988 8.127690000000001 1.5481499999999988 8.25209 1.7636199999999989 z" stroke-linecap="round" />
</g>
<g transform="matrix(0.6338461901 0 0 0.6338461901 36.7147508876 -33.624914805)" id="qjSaVAMGjUOSRxY41V1JT"  >
<path style="stroke: rgb(0,0,0); stroke-width: 0; stroke-dasharray: none; stroke-linecap: butt; stroke-dashoffset: 0; stroke-linejoin: miter; stroke-miterlimit: 4; fill: rgb(255,255,255); fill-rule: nonzero; opacity: 1;"  transform=" translate(0, 0)" d="M 0 -31.5534 C 17.41747 -31.5534 31.5534 -17.417479999999998 31.5534 0 C 31.5534 17.41747 17.417479999999998 31.5534 0 31.5534 C -17.41747 31.5534 -31.5534 17.417479999999998 -31.5534 0 C -31.5534 -17.41747 -17.417479999999998 -31.5534 0 -31.5534 z" stroke-linecap="round" />
</g>
<g transform="matrix(1 0 0 1 36.7147508876 -33.624914805)" id="QDkKzN4PdOLhEjJyQxLfm"  >
<path style="stroke: rgb(0,0,0); stroke-width: 0; stroke-dasharray: none; stroke-linecap: butt; stroke-dashoffset: 0; stroke-linejoin: miter; stroke-miterlimit: 4; fill: rgb(0,0,0); fill-rule: nonzero; opacity: 1;"  transform=" translate(-14.21459, -14.21459)" d="M 14.21459 7.88749 C 17.70715 7.88749 20.5417 10.72203 20.5417 14.2146 C 20.5417 17.707160000000002 17.70716 20.541710000000002 14.214589999999998 20.541710000000002 C 10.722029999999997 20.541710000000002 7.887479999999997 17.70717 7.887479999999997 14.2146 C 7.887479999999997 10.72204 10.722019999999997 7.887490000000001 14.214589999999998 7.887490000000001 z M 13.15277 0.45049 C 13.15277 0.20169 13.35446 0 13.60326 0 L 14.82591 0 C 15.07471 0 15.2764 0.20169 15.2764 0.45049 L 15.2764 4.52327 C 15.2764 4.77207 15.074710000000001 4.97376 14.82591 4.97376 L 13.60326 4.97376 C 13.354460000000001 4.97376 13.15277 4.77207 13.15277 4.52327 z M 13.15277 23.90591 C 13.15277 23.65711 13.35446 23.45542 13.60326 23.45542 L 14.82591 23.45542 C 15.07471 23.45542 15.2764 23.65711 15.2764 23.90591 L 15.2764 27.97869 C 15.2764 28.22749 15.074710000000001 28.42918 14.82591 28.42918 L 13.60326 28.42918 C 13.354460000000001 28.42918 13.15277 28.22749 13.15277 27.97869 z M 20.17707 1.76363 C 20.301470000000002 1.54816 20.576990000000002 1.47434 20.792460000000002 1.59874 L 21.85131 2.21007 C 22.06678 2.33447 22.140600000000003 2.60999 22.0162 2.82546 L 19.97981 6.352600000000001 C 19.85541 6.5680700000000005 19.57989 6.641890000000001 19.36442 6.5174900000000004 L 18.30557 5.90617 C 18.0901 5.781770000000001 18.01628 5.5062500000000005 18.14068 5.290780000000001 z M 8.44937 22.07661 C 8.57377 21.86114 8.84929 21.787319999999998 9.06476 21.91172 L 10.12361 22.523049999999998 C 10.33908 22.64745 10.412899999999999 22.92297 10.288499999999999 23.13844 L 8.252109999999998 26.66558 C 8.127709999999999 26.88105 7.8521899999999984 26.95487 7.636719999999999 26.83047 L 6.577869999999999 26.21915 C 6.362399999999999 26.094749999999998 6.288579999999999 25.819229999999997 6.412979999999999 25.603759999999998 z M 25.60374 6.41298 C 25.819209999999998 6.2885800000000005 26.09473 6.3624 26.21913 6.57787 L 26.83046 7.63672 C 26.95486 7.85219 26.88104 8.12771 26.66557 8.25211 L 23.13843 10.288499999999999 C 22.92296 10.412899999999999 22.64744 10.33908 22.523039999999998 10.12361 L 21.91171 9.06476 C 21.787309999999998 8.84929 21.86113 8.57377 22.0766 8.44937 z M 5.29075 18.14069 C 5.50622 18.016289999999998 5.78174 18.09011 5.90614 18.30558 L 6.517469999999999 19.36443 C 6.641869999999999 19.5799 6.5680499999999995 19.85542 6.35258 19.97982 L 2.8254399999999995 22.01621 C 2.6099699999999997 22.140610000000002 2.3344499999999995 22.06679 2.2100499999999994 21.85132 L 1.5987199999999993 20.79247 C 1.4743199999999992 20.577 1.5481399999999992 20.30148 1.7636099999999992 20.17708 z M 27.97869 13.15277 C 28.22749 13.15277 28.42918 13.35446 28.42918 13.60326 L 28.42918 14.82591 C 28.42918 15.07471 28.22749 15.2764 27.97869 15.2764 L 23.90591 15.2764 C 23.65711 15.2764 23.45542 15.074710000000001 23.45542 14.82591 L 23.45542 13.60326 C 23.45542 13.354460000000001 23.65711 13.15277 23.90591 13.15277 z M 4.52327 13.15277 C 4.77207 13.15277 4.97376 13.35446 4.97376 13.60326 L 4.97376 14.82591 C 4.97376 15.07471 4.77207 15.2764 4.52327 15.2764 L 0.4504900000000003 15.2764 C 0.20169000000000029 15.2764 2.7755575615628914e-16 15.074710000000001 2.7755575615628914e-16 14.82591 L 2.7755575615628914e-16 13.60326 C 2.7755575615628914e-16 13.354460000000001 0.20169000000000029 13.15277 0.4504900000000003 13.15277 z M 26.66555 20.17708 C 26.88102 20.30148 26.95484 20.577 26.83044 20.79247 L 26.21911 21.85132 C 26.09471 22.06679 25.81919 22.140610000000002 25.60372 22.01621 L 22.07658 19.97982 C 21.86111 19.85542 21.78729 19.5799 21.91169 19.36443 L 22.52301 18.30558 C 22.64741 18.09011 22.92293 18.016289999999998 23.1384 18.14069 z M 6.35257 8.44937 C 6.56804 8.57377 6.64186 8.84929 6.51746 9.06476 L 5.90613 10.12361 C 5.7817300000000005 10.33908 5.50621 10.412899999999999 5.29074 10.288499999999999 L 1.7636000000000003 8.252109999999998 C 1.5481300000000002 8.127709999999999 1.4743100000000002 7.8521899999999984 1.5987100000000003 7.636719999999999 L 2.21003 6.577869999999999 C 2.3344300000000002 6.362399999999999 2.60995 6.288579999999999 2.8254200000000003 6.412979999999999 z M 22.01619 25.60374 C 22.140590000000003 25.819209999999998 22.06677 26.09473 21.851300000000002 26.21913 L 20.792450000000002 26.83046 C 20.576980000000002 26.95486 20.301460000000002 26.88104 20.17706 26.66557 L 18.14067 23.13843 C 18.01627 22.92296 18.09009 22.64744 18.30556 22.523039999999998 L 19.36441 21.91171 C 19.57988 21.787309999999998 19.8554 21.86113 19.9798 22.0766 z M 10.28848 5.29076 C 10.41288 5.5062299999999995 10.33906 5.78175 10.12359 5.906149999999999 L 9.06474 6.517479999999999 C 8.84927 6.641879999999999 8.57375 6.568059999999999 8.44935 6.352589999999999 L 6.412960000000001 2.825449999999999 C 6.288560000000001 2.6099799999999993 6.362380000000001 2.334459999999999 6.577850000000001 2.210059999999999 L 7.636700000000001 1.5987299999999989 C 7.852170000000001 1.4743299999999988 8.127690000000001 1.5481499999999988 8.25209 1.7636199999999989 z" stroke-linecap="round" />
</g>
<g transform="matrix(0.5116705001 0 0 0.5116705001 162.8493957858 45.0000055015)" id="FPTdG__rKKlhuH8ySh2yb"  >
<path style="stroke: rgb(0,0,0); stroke-width: 0; stroke-dasharray: none; stroke-linecap: butt; stroke-dashoffset: 0; stroke-linejoin: miter; stroke-miterlimit: 4; fill: rgb(255,255,255); fill-rule: nonzero; opacity: 1;"  transform=" translate(0, 0)" d="M 0 -12.36559 C 6.8258 -12.36559 12.36559 -6.825809999999999 12.36559 0 C 12.36559 6.8258 6.825809999999999 12.36559 0 12.36559 C -6.8258 12.36559 -12.36559 6.825809999999999 -12.36559 0 C -12.36559 -6.8258 -6.825809999999999 -12.36559 0 -12.36559 z" stroke-linecap="round" />
</g>
<g transform="matrix(0.7977436221 0 0 0.7977436221 162.8493957858 45.0000055015)" id="weKSIKkLFocOSnf5T6Q9K"  >
<path style="stroke: rgb(0,0,0); stroke-width: 0; stroke-dasharray: none; stroke-linecap: butt; stroke-dashoffset: 0; stroke-linejoin: miter; stroke-miterlimit: 4; fill: rgb(255,255,255); fill-rule: nonzero; opacity: 1;"  transform=" translate(-17.8185, -17.8185)" d="M 16.48748 0.56471 C 16.48748 0.25283000000000005 16.74031 0 17.052190000000003 0 L 18.584820000000004 0 C 18.896700000000003 0 19.149530000000006 0.25283 19.149530000000006 0.56471 L 19.149530000000006 5.67009 C 19.149530000000006 5.9819700000000005 18.896700000000006 6.2348 18.584820000000004 6.2348 L 17.052190000000003 6.2348 C 16.740310000000004 6.2348 16.48748 5.98197 16.48748 5.67009 z M 16.48748 29.96691 C 16.48748 29.65503 16.74031 29.402199999999997 17.052190000000003 29.402199999999997 L 18.584820000000004 29.402199999999997 C 18.896700000000003 29.402199999999997 19.149530000000006 29.655029999999996 19.149530000000006 29.96691 L 19.149530000000006 35.072289999999995 C 19.149530000000006 35.38417 18.896700000000006 35.63699999999999 18.584820000000004 35.63699999999999 L 17.052190000000003 35.63699999999999 C 16.740310000000004 35.63699999999999 16.48748 35.38416999999999 16.48748 35.072289999999995 z M 25.29269 2.21077 C 25.44863 1.9406700000000001 25.794 1.84813 26.0641 2.00407 L 27.3914 2.77039 C 27.6615 2.92633 27.75404 3.2717 27.598100000000002 3.5418 L 25.045410000000004 7.963189999999999 C 24.889470000000003 8.233289999999998 24.544100000000004 8.32583 24.274000000000004 8.169889999999999 L 22.946700000000003 7.403579999999999 C 22.676600000000004 7.247639999999999 22.584060000000004 6.902269999999999 22.740000000000002 6.632169999999999 z M 10.5916 27.67382 C 10.747539999999999 27.40372 11.09291 27.31118 11.36301 27.467119999999998 L 12.690309999999998 28.233439999999998 C 12.960409999999998 28.38938 13.05295 28.73475 12.897009999999998 29.004849999999998 L 10.344319999999998 33.42624 C 10.188379999999999 33.69634 9.843009999999998 33.78888 9.572909999999998 33.63294 L 8.24561 32.86663 C 7.975509999999999 32.71069 7.882969999999999 32.365320000000004 8.03891 32.09522 z M 32.09521 8.0389 C 32.36531 7.88296 32.71068 7.9755 32.866620000000005 8.2456 L 33.632940000000005 9.572899999999999 C 33.788880000000006 9.842999999999998 33.696340000000006 10.188369999999999 33.42624000000001 10.344309999999998 L 29.00485000000001 12.896999999999998 C 28.73475000000001 13.052939999999998 28.38938000000001 12.960399999999998 28.23344000000001 12.690299999999999 L 27.46712000000001 11.363 C 27.311180000000007 11.0929 27.403720000000007 10.74753 27.67382000000001 10.59159 z M 6.63216 22.74 C 6.90226 22.584059999999997 7.24763 22.676599999999997 7.40357 22.9467 L 8.16989 24.274 C 8.32583 24.5441 8.23329 24.88947 7.963190000000001 25.04541 L 3.541800000000001 27.598100000000002 C 3.271700000000001 27.754040000000003 2.926330000000001 27.661500000000004 2.7703900000000012 27.3914 L 2.0040700000000014 26.0641 C 1.8481300000000014 25.794 1.9406700000000014 25.44863 2.2107700000000015 25.29269 z M 35.07229 16.48747 C 35.384170000000005 16.48747 35.637 16.740299999999998 35.637 17.05218 L 35.637 18.58481 C 35.637 18.89669 35.38417 19.149520000000003 35.07229 19.149520000000003 L 29.966910000000002 19.149520000000003 C 29.655030000000004 19.149520000000003 29.4022 18.896690000000003 29.4022 18.58481 L 29.4022 17.05218 C 29.4022 16.7403 29.65503 16.48747 29.966910000000002 16.48747 z M 5.67009 16.48747 C 5.9819700000000005 16.48747 6.2348 16.740299999999998 6.2348 17.05218 L 6.2348 18.58481 C 6.2348 18.89669 5.98197 19.149520000000003 5.67009 19.149520000000003 L 0.5647099999999998 19.149520000000003 C 0.25282999999999983 19.149520000000003 -2.220446049250313e-16 18.896690000000003 -2.220446049250313e-16 18.58481 L -2.220446049250313e-16 17.05218 C -2.220446049250313e-16 16.7403 0.2528299999999998 16.48747 0.5647099999999998 16.48747 z M 33.42623 25.29269 C 33.696329999999996 25.44863 33.788869999999996 25.794 33.632929999999995 26.0641 L 32.866609999999994 27.3914 C 32.71066999999999 27.6615 32.3653 27.75404 32.09519999999999 27.598100000000002 L 27.673809999999992 25.045410000000004 C 27.403709999999993 24.889470000000003 27.311169999999994 24.544100000000004 27.46710999999999 24.274000000000004 L 28.23341999999999 22.946700000000003 C 28.389359999999993 22.676600000000004 28.734729999999992 22.584060000000004 29.00482999999999 22.740000000000002 z M 7.96318 10.59159 C 8.23328 10.74753 8.32582 11.0929 8.169880000000001 11.363 L 7.403560000000001 12.690299999999999 C 7.24762 12.960399999999998 6.90225 13.05294 6.63215 12.896999999999998 L 2.2107600000000005 10.344309999999998 C 1.9406600000000005 10.188369999999999 1.8481200000000004 9.842999999999998 2.0040600000000004 9.572899999999999 L 2.7703700000000007 8.2456 C 2.926310000000001 7.975499999999999 3.271680000000001 7.88296 3.5417800000000006 8.0389 z M 27.59809 32.0952 C 27.75403 32.3653 27.66149 32.71067 27.391389999999998 32.86661 L 26.064089999999997 33.63293 C 25.793989999999997 33.78887 25.44862 33.69633 25.292679999999997 33.426230000000004 L 22.73999 29.004840000000005 C 22.584049999999998 28.734740000000006 22.676589999999997 28.389370000000007 22.94669 28.233430000000006 L 24.27399 27.467110000000005 C 24.54409 27.311170000000004 24.88946 27.403710000000004 25.0454 27.673810000000007 z M 12.89699 6.63215 C 13.05293 6.90225 12.96039 7.24762 12.690290000000001 7.403560000000001 L 11.362990000000002 8.169880000000001 C 11.092890000000002 8.32582 10.747520000000002 8.23328 10.591580000000002 7.963180000000001 L 8.038890000000002 3.5417900000000015 C 7.882950000000002 3.2716900000000013 7.975490000000002 2.9263200000000014 8.245590000000002 2.7703800000000016 L 9.572890000000001 2.0040600000000017 C 9.84299 1.8481200000000018 10.188360000000001 1.9406600000000018 10.3443 2.210760000000002 z" stroke-linecap="round" />
</g>
</svg>